<svg xmlns="http://www.w3.org/2000/svg" version="1.1" xmlns:xlink="http://www.w3.org/1999/xlink" xmlns:svgjs="http://svgjs.com/svgjs" width="1440" height="560" preserveAspectRatio="none" viewBox="0 0 1440 560">
    <g mask="url(&quot;#SvgjsMask1003&quot;)" fill="none">
        <rect width="1440" height="560" x="0" y="0" fill="url(#SvgjsRadialGradient1004)"></rect>
        <path d="M-45.29 409.49L-45.29 409.49" stroke="rgba(79, 158, 109, 1)" stroke-width="1.5"></path>
        <path d="M-45.29 409.49L45.07 371.65" stroke="rgba(79, 158, 109, 1)" stroke-width="1.5"></path>
        <path d="M-45.29 409.49L-37.62 555.36" stroke="rgba(79, 158, 109, 1)" stroke-width="1.5"></path>
        <path d="M-45.29 409.49L56.83 516.56" stroke="rgba(79, 158, 109, 1)" stroke-width="1.5"></path>
        <path d="M-45.29 409.49L-111.94 672.06" stroke="rgba(79, 158, 109, 1)" stroke-width="1.5"></path>
        <path d="M-45.29 409.49L249.62 394.6" stroke="rgba(79, 158, 109, 1)" stroke-width="1.5"></path>
        <path d="M-45.29 409.49L251.56 497.68" stroke="rgba(79, 158, 109, 1)" stroke-width="1.5"></path>
        <path d="M-37.62 555.36L-37.62 555.36" stroke="rgba(79, 158, 109, 1)" stroke-width="1.5"></path>
        <path d="M-37.62 555.36L56.83 516.56" stroke="rgba(79, 158, 109, 1)" stroke-width="1.5"></path>
        <path d="M-37.62 555.36L-111.94 672.06" stroke="rgba(79, 158, 109, 1)" stroke-width="1.5"></path>
        <path d="M-37.62 555.36L99.65 700.25" stroke="rgba(79, 158, 109, 1)" stroke-width="1.5"></path>
        <path d="M-37.62 555.36L45.07 371.65" stroke="rgba(79, 158, 109, 1)" stroke-width="1.5"></path>
        <path d="M-37.62 555.36L233.86 658.32" stroke="rgba(79, 158, 109, 1)" stroke-width="1.5"></path>
        <path d="M-111.94 672.06L-111.94 672.06" stroke="rgba(79, 158, 109, 1)" stroke-width="1.5"></path>
        <path d="M-111.94 672.06L99.65 700.25" stroke="rgba(79, 158, 109, 1)" stroke-width="1.5"></path>
        <path d="M-111.94 672.06L56.83 516.56" stroke="rgba(79, 158, 109, 1)" stroke-width="1.5"></path>
        <path d="M45.07 371.65L45.07 371.65" stroke="rgba(79, 158, 109, 1)" stroke-width="1.5"></path>
        <path d="M45.07 371.65L56.83 516.56" stroke="rgba(79, 158, 109, 1)" stroke-width="1.5"></path>
        <path d="M56.83 516.56L56.83 516.56" stroke="rgba(79, 158, 109, 1)" stroke-width="1.5"></path>
        <path d="M99.65 700.25L99.65 700.25" stroke="rgba(79, 158, 109, 1)" stroke-width="1.5"></path>
        <path d="M99.65 700.25L233.86 658.32" stroke="rgba(79, 158, 109, 1)" stroke-width="1.5"></path>
        <path d="M99.65 700.25L56.83 516.56" stroke="rgba(79, 158, 109, 1)" stroke-width="1.5"></path>
        <path d="M249.62 394.6L249.62 394.6" stroke="rgba(79, 158, 109, 1)" stroke-width="1.5"></path>
        <path d="M249.62 394.6L251.56 497.68" stroke="rgba(79, 158, 109, 1)" stroke-width="1.5"></path>
        <path d="M249.62 394.6L365.24 504.8" stroke="rgba(79, 158, 109, 1)" stroke-width="1.5"></path>
        <path d="M249.62 394.6L409.59 382.44" stroke="rgba(79, 158, 109, 1)" stroke-width="1.5"></path>
        <path d="M249.62 394.6L45.07 371.65" stroke="rgba(79, 158, 109, 1)" stroke-width="1.5"></path>
        <path d="M249.62 394.6L56.83 516.56" stroke="rgba(79, 158, 109, 1)" stroke-width="1.5"></path>
        <path d="M249.62 394.6L233.86 658.32" stroke="rgba(79, 158, 109, 1)" stroke-width="1.5"></path>
        <path d="M251.56 497.68L251.56 497.68" stroke="rgba(79, 158, 109, 1)" stroke-width="1.5"></path>
        <path d="M251.56 497.68L365.24 504.8" stroke="rgba(79, 158, 109, 1)" stroke-width="1.5"></path>
        <path d="M251.56 497.68L233.86 658.32" stroke="rgba(79, 158, 109, 1)" stroke-width="1.5"></path>
        <path d="M251.56 497.68L409.59 382.44" stroke="rgba(79, 158, 109, 1)" stroke-width="1.5"></path>
        <path d="M233.86 658.32L233.86 658.32" stroke="rgba(79, 158, 109, 1)" stroke-width="1.5"></path>
        <path d="M233.86 658.32L360.01 681.79" stroke="rgba(79, 158, 109, 1)" stroke-width="1.5"></path>
        <path d="M233.86 658.32L365.24 504.8" stroke="rgba(79, 158, 109, 1)" stroke-width="1.5"></path>
        <path d="M233.86 658.32L56.83 516.56" stroke="rgba(79, 158, 109, 1)" stroke-width="1.5"></path>
        <path d="M409.59 382.44L409.59 382.44" stroke="rgba(79, 158, 109, 1)" stroke-width="1.5"></path>
        <path d="M409.59 382.44L365.24 504.8" stroke="rgba(79, 158, 109, 1)" stroke-width="1.5"></path>
        <path d="M409.59 382.44L550.8 406.91" stroke="rgba(79, 158, 109, 1)" stroke-width="1.5"></path>
        <path d="M409.59 382.44L521.27 521.97" stroke="rgba(79, 158, 109, 1)" stroke-width="1.5"></path>
        <path d="M409.59 382.44L672.31 353.99" stroke="rgba(79, 158, 109, 1)" stroke-width="1.5"></path>
        <path d="M365.24 504.8L365.24 504.8" stroke="rgba(79, 158, 109, 1)" stroke-width="1.5"></path>
        <path d="M365.24 504.8L521.27 521.97" stroke="rgba(79, 158, 109, 1)" stroke-width="1.5"></path>
        <path d="M365.24 504.8L360.01 681.79" stroke="rgba(79, 158, 109, 1)" stroke-width="1.5"></path>
        <path d="M360.01 681.79L360.01 681.79" stroke="rgba(79, 158, 109, 1)" stroke-width="1.5"></path>
        <path d="M360.01 681.79L499.72 691.65" stroke="rgba(79, 158, 109, 1)" stroke-width="1.5"></path>
        <path d="M550.8 406.91L550.8 406.91" stroke="rgba(79, 158, 109, 1)" stroke-width="1.5"></path>
        <path d="M550.8 406.91L521.27 521.97" stroke="rgba(79, 158, 109, 1)" stroke-width="1.5"></path>
        <path d="M550.8 406.91L672.31 353.99" stroke="rgba(79, 158, 109, 1)" stroke-width="1.5"></path>
        <path d="M521.27 521.97L521.27 521.97" stroke="rgba(79, 158, 109, 1)" stroke-width="1.5"></path>
        <path d="M521.27 521.97L671.66 553.47" stroke="rgba(79, 158, 109, 1)" stroke-width="1.5"></path>
        <path d="M521.27 521.97L499.72 691.65" stroke="rgba(79, 158, 109, 1)" stroke-width="1.5"></path>
        <path d="M499.72 691.65L499.72 691.65" stroke="rgba(79, 158, 109, 1)" stroke-width="1.5"></path>
        <path d="M499.72 691.65L663.61 687.66" stroke="rgba(79, 158, 109, 1)" stroke-width="1.5"></path>
        <path d="M672.31 353.99L672.31 353.99" stroke="rgba(79, 158, 109, 1)" stroke-width="1.5"></path>
        <path d="M672.31 353.99L811.65 351.92" stroke="rgba(79, 158, 109, 1)" stroke-width="1.5"></path>
        <path d="M672.31 353.99L814.57 229.76" stroke="rgba(79, 158, 109, 1)" stroke-width="1.5"></path>
        <path d="M672.31 353.99L671.66 553.47" stroke="rgba(79, 158, 109, 1)" stroke-width="1.5"></path>
        <path d="M671.66 553.47L671.66 553.47" stroke="rgba(79, 158, 109, 1)" stroke-width="1.5"></path>
        <path d="M671.66 553.47L799.23 531.01" stroke="rgba(79, 158, 109, 1)" stroke-width="1.5"></path>
        <path d="M671.66 553.47L663.61 687.66" stroke="rgba(79, 158, 109, 1)" stroke-width="1.5"></path>
        <path d="M671.66 553.47L550.8 406.91" stroke="rgba(79, 158, 109, 1)" stroke-width="1.5"></path>
        <path d="M671.66 553.47L499.72 691.65" stroke="rgba(79, 158, 109, 1)" stroke-width="1.5"></path>
        <path d="M663.61 687.66L663.61 687.66" stroke="rgba(79, 158, 109, 1)" stroke-width="1.5"></path>
        <path d="M663.61 687.66L799.23 531.01" stroke="rgba(79, 158, 109, 1)" stroke-width="1.5"></path>
        <path d="M663.61 687.66L521.27 521.97" stroke="rgba(79, 158, 109, 1)" stroke-width="1.5"></path>
        <path d="M663.61 687.66L941.45 668.86" stroke="rgba(79, 158, 109, 1)" stroke-width="1.5"></path>
        <path d="M814.57 229.76L814.57 229.76" stroke="rgba(79, 158, 109, 1)" stroke-width="1.5"></path>
        <path d="M814.57 229.76L811.65 351.92" stroke="rgba(79, 158, 109, 1)" stroke-width="1.5"></path>
        <path d="M814.57 229.76L949.02 200.15" stroke="rgba(79, 158, 109, 1)" stroke-width="1.5"></path>
        <path d="M811.65 351.92L811.65 351.92" stroke="rgba(79, 158, 109, 1)" stroke-width="1.5"></path>
        <path d="M811.65 351.92L943.21 344.21" stroke="rgba(79, 158, 109, 1)" stroke-width="1.5"></path>
        <path d="M811.65 351.92L799.23 531.01" stroke="rgba(79, 158, 109, 1)" stroke-width="1.5"></path>
        <path d="M811.65 351.92L949.02 200.15" stroke="rgba(79, 158, 109, 1)" stroke-width="1.5"></path>
        <path d="M799.23 531.01L799.23 531.01" stroke="rgba(79, 158, 109, 1)" stroke-width="1.5"></path>
        <path d="M799.23 531.01L941.45 668.86" stroke="rgba(79, 158, 109, 1)" stroke-width="1.5"></path>
        <path d="M799.23 531.01L1004.62 513.49" stroke="rgba(79, 158, 109, 1)" stroke-width="1.5"></path>
        <path d="M950.79 89.35L950.79 89.35" stroke="rgba(79, 158, 109, 1)" stroke-width="1.5"></path>
        <path d="M950.79 89.35L949.02 200.15" stroke="rgba(79, 158, 109, 1)" stroke-width="1.5"></path>
        <path d="M950.79 89.35L1108.24 189.14" stroke="rgba(79, 158, 109, 1)" stroke-width="1.5"></path>
        <path d="M950.79 89.35L814.57 229.76" stroke="rgba(79, 158, 109, 1)" stroke-width="1.5"></path>
        <path d="M950.79 89.35L1087.71 -88.53" stroke="rgba(79, 158, 109, 1)" stroke-width="1.5"></path>
        <path d="M950.79 89.35L943.21 344.21" stroke="rgba(79, 158, 109, 1)" stroke-width="1.5"></path>
        <path d="M949.02 200.15L949.02 200.15" stroke="rgba(79, 158, 109, 1)" stroke-width="1.5"></path>
        <path d="M949.02 200.15L943.21 344.21" stroke="rgba(79, 158, 109, 1)" stroke-width="1.5"></path>
        <path d="M943.21 344.21L943.21 344.21" stroke="rgba(79, 158, 109, 1)" stroke-width="1.5"></path>
        <path d="M943.21 344.21L1093.15 364.09" stroke="rgba(79, 158, 109, 1)" stroke-width="1.5"></path>
        <path d="M943.21 344.21L814.57 229.76" stroke="rgba(79, 158, 109, 1)" stroke-width="1.5"></path>
        <path d="M1004.62 513.49L1004.62 513.49" stroke="rgba(79, 158, 109, 1)" stroke-width="1.5"></path>
        <path d="M1004.62 513.49L1094.82 548.99" stroke="rgba(79, 158, 109, 1)" stroke-width="1.5"></path>
        <path d="M1004.62 513.49L941.45 668.86" stroke="rgba(79, 158, 109, 1)" stroke-width="1.5"></path>
        <path d="M941.45 668.86L941.45 668.86" stroke="rgba(79, 158, 109, 1)" stroke-width="1.5"></path>
        <path d="M941.45 668.86L1106.37 658" stroke="rgba(79, 158, 109, 1)" stroke-width="1.5"></path>
        <path d="M941.45 668.86L1094.82 548.99" stroke="rgba(79, 158, 109, 1)" stroke-width="1.5"></path>
        <path d="M1087.71 -88.53L1087.71 -88.53" stroke="rgba(79, 158, 109, 1)" stroke-width="1.5"></path>
        <path d="M1087.71 -88.53L1286.28 -96.63" stroke="rgba(79, 158, 109, 1)" stroke-width="1.5"></path>
        <path d="M1087.71 -88.53L1287.64 40.79" stroke="rgba(79, 158, 109, 1)" stroke-width="1.5"></path>
        <path d="M1108.24 189.14L1108.24 189.14" stroke="rgba(79, 158, 109, 1)" stroke-width="1.5"></path>
        <path d="M1108.24 189.14L1257.04 191.08" stroke="rgba(79, 158, 109, 1)" stroke-width="1.5"></path>
        <path d="M1108.24 189.14L949.02 200.15" stroke="rgba(79, 158, 109, 1)" stroke-width="1.5"></path>
        <path d="M1093.15 364.09L1093.15 364.09" stroke="rgba(79, 158, 109, 1)" stroke-width="1.5"></path>
        <path d="M1093.15 364.09L1253.25 391.54" stroke="rgba(79, 158, 109, 1)" stroke-width="1.5"></path>
        <path d="M1093.15 364.09L1004.62 513.49" stroke="rgba(79, 158, 109, 1)" stroke-width="1.5"></path>
        <path d="M1093.15 364.09L1108.24 189.14" stroke="rgba(79, 158, 109, 1)" stroke-width="1.5"></path>
        <path d="M1094.82 548.99L1094.82 548.99" stroke="rgba(79, 158, 109, 1)" stroke-width="1.5"></path>
        <path d="M1094.82 548.99L1106.37 658" stroke="rgba(79, 158, 109, 1)" stroke-width="1.5"></path>
        <path d="M1094.82 548.99L1093.15 364.09" stroke="rgba(79, 158, 109, 1)" stroke-width="1.5"></path>
        <path d="M1106.37 658L1106.37 658" stroke="rgba(79, 158, 109, 1)" stroke-width="1.5"></path>
        <path d="M1286.28 -96.63L1286.28 -96.63" stroke="rgba(79, 158, 109, 1)" stroke-width="1.5"></path>
        <path d="M1286.28 -96.63L1287.64 40.79" stroke="rgba(79, 158, 109, 1)" stroke-width="1.5"></path>
        <path d="M1286.28 -96.63L1433.44 -94.99" stroke="rgba(79, 158, 109, 1)" stroke-width="1.5"></path>
        <path d="M1286.28 -96.63L1421.17 100.34" stroke="rgba(79, 158, 109, 1)" stroke-width="1.5"></path>
        <path d="M1287.64 40.79L1287.64 40.79" stroke="rgba(79, 158, 109, 1)" stroke-width="1.5"></path>
        <path d="M1287.64 40.79L1421.17 100.34" stroke="rgba(79, 158, 109, 1)" stroke-width="1.5"></path>
        <path d="M1287.64 40.79L1257.04 191.08" stroke="rgba(79, 158, 109, 1)" stroke-width="1.5"></path>
        <path d="M1287.64 40.79L1433.44 -94.99" stroke="rgba(79, 158, 109, 1)" stroke-width="1.5"></path>
        <path d="M1287.64 40.79L1434.1 193.09" stroke="rgba(79, 158, 109, 1)" stroke-width="1.5"></path>
        <path d="M1287.64 40.79L1108.24 189.14" stroke="rgba(79, 158, 109, 1)" stroke-width="1.5"></path>
        <path d="M1257.04 191.08L1257.04 191.08" stroke="rgba(79, 158, 109, 1)" stroke-width="1.5"></path>
        <path d="M1257.04 191.08L1434.1 193.09" stroke="rgba(79, 158, 109, 1)" stroke-width="1.5"></path>
        <path d="M1257.04 191.08L1421.17 100.34" stroke="rgba(79, 158, 109, 1)" stroke-width="1.5"></path>
        <path d="M1257.04 191.08L1253.25 391.54" stroke="rgba(79, 158, 109, 1)" stroke-width="1.5"></path>
        <path d="M1253.25 391.54L1253.25 391.54" stroke="rgba(79, 158, 109, 1)" stroke-width="1.5"></path>
        <path d="M1253.25 391.54L1404.47 513.76" stroke="rgba(79, 158, 109, 1)" stroke-width="1.5"></path>
        <path d="M1253.25 391.54L1094.82 548.99" stroke="rgba(79, 158, 109, 1)" stroke-width="1.5"></path>
        <path d="M1284.01 662.11L1284.01 662.11" stroke="rgba(79, 158, 109, 1)" stroke-width="1.5"></path>
        <path d="M1284.01 662.11L1393.44 678.44" stroke="rgba(79, 158, 109, 1)" stroke-width="1.5"></path>
        <path d="M1284.01 662.11L1106.37 658" stroke="rgba(79, 158, 109, 1)" stroke-width="1.5"></path>
        <path d="M1284.01 662.11L1404.47 513.76" stroke="rgba(79, 158, 109, 1)" stroke-width="1.5"></path>
        <path d="M1284.01 662.11L1094.82 548.99" stroke="rgba(79, 158, 109, 1)" stroke-width="1.5"></path>
        <path d="M1284.01 662.11L1541.62 692.28" stroke="rgba(79, 158, 109, 1)" stroke-width="1.5"></path>
        <path d="M1433.44 -94.99L1433.44 -94.99" stroke="rgba(79, 158, 109, 1)" stroke-width="1.5"></path>
        <path d="M1433.44 -94.99L1552.29 -43.66" stroke="rgba(79, 158, 109, 1)" stroke-width="1.5"></path>
        <path d="M1421.17 100.34L1421.17 100.34" stroke="rgba(79, 158, 109, 1)" stroke-width="1.5"></path>
        <path d="M1421.17 100.34L1434.1 193.09" stroke="rgba(79, 158, 109, 1)" stroke-width="1.5"></path>
        <path d="M1421.17 100.34L1541.28 104.61" stroke="rgba(79, 158, 109, 1)" stroke-width="1.5"></path>
        <path d="M1434.1 193.09L1434.1 193.09" stroke="rgba(79, 158, 109, 1)" stroke-width="1.5"></path>
        <path d="M1434.1 193.09L1541.28 104.61" stroke="rgba(79, 158, 109, 1)" stroke-width="1.5"></path>
        <path d="M1434.1 193.09L1579.7 200.96" stroke="rgba(79, 158, 109, 1)" stroke-width="1.5"></path>
        <path d="M1404.47 513.76L1404.47 513.76" stroke="rgba(79, 158, 109, 1)" stroke-width="1.5"></path>
        <path d="M1404.47 513.76L1393.44 678.44" stroke="rgba(79, 158, 109, 1)" stroke-width="1.5"></path>
        <path d="M1404.47 513.76L1572.95 554.12" stroke="rgba(79, 158, 109, 1)" stroke-width="1.5"></path>
        <path d="M1404.47 513.76L1542.87 354.73" stroke="rgba(79, 158, 109, 1)" stroke-width="1.5"></path>
        <path d="M1393.44 678.44L1393.44 678.44" stroke="rgba(79, 158, 109, 1)" stroke-width="1.5"></path>
        <path d="M1393.44 678.44L1541.62 692.28" stroke="rgba(79, 158, 109, 1)" stroke-width="1.5"></path>
        <path d="M1552.29 -43.66L1552.29 -43.66" stroke="rgba(79, 158, 109, 1)" stroke-width="1.5"></path>
        <path d="M1552.29 -43.66L1541.28 104.61" stroke="rgba(79, 158, 109, 1)" stroke-width="1.5"></path>
        <path d="M1552.29 -43.66L1421.17 100.34" stroke="rgba(79, 158, 109, 1)" stroke-width="1.5"></path>
        <path d="M1552.29 -43.66L1579.7 200.96" stroke="rgba(79, 158, 109, 1)" stroke-width="1.5"></path>
        <path d="M1552.29 -43.66L1434.1 193.09" stroke="rgba(79, 158, 109, 1)" stroke-width="1.5"></path>
        <path d="M1541.28 104.61L1541.28 104.61" stroke="rgba(79, 158, 109, 1)" stroke-width="1.5"></path>
        <path d="M1541.28 104.61L1579.7 200.96" stroke="rgba(79, 158, 109, 1)" stroke-width="1.5"></path>
        <path d="M1541.28 104.61L1433.44 -94.99" stroke="rgba(79, 158, 109, 1)" stroke-width="1.5"></path>
        <path d="M1541.28 104.61L1542.87 354.73" stroke="rgba(79, 158, 109, 1)" stroke-width="1.5"></path>
        <path d="M1579.7 200.96L1579.7 200.96" stroke="rgba(79, 158, 109, 1)" stroke-width="1.5"></path>
        <path d="M1542.87 354.73L1542.87 354.73" stroke="rgba(79, 158, 109, 1)" stroke-width="1.5"></path>
        <path d="M1542.87 354.73L1579.7 200.96" stroke="rgba(79, 158, 109, 1)" stroke-width="1.5"></path>
        <path d="M1542.87 354.73L1434.1 193.09" stroke="rgba(79, 158, 109, 1)" stroke-width="1.5"></path>
        <path d="M1542.87 354.73L1572.95 554.12" stroke="rgba(79, 158, 109, 1)" stroke-width="1.5"></path>
        <path d="M1572.95 554.12L1572.95 554.12" stroke="rgba(79, 158, 109, 1)" stroke-width="1.5"></path>
        <path d="M1572.95 554.12L1541.62 692.28" stroke="rgba(79, 158, 109, 1)" stroke-width="1.5"></path>
        <path d="M1541.62 692.28L1541.62 692.28" stroke="rgba(79, 158, 109, 1)" stroke-width="1.5"></path>
        <circle r="5" cx="-45.29" cy="409.49" fill="rgba(79, 158, 109, 1)"></circle>
        <circle r="5" cx="-37.62" cy="555.36" fill="rgba(79, 158, 109, 1)"></circle>
        <circle r="5" cx="-111.94" cy="672.06" fill="rgba(79, 158, 109, 1)"></circle>
        <circle r="5" cx="45.07" cy="371.65" fill="rgba(79, 158, 109, 1)"></circle>
        <circle r="5" cx="56.83" cy="516.56" fill="rgba(79, 158, 109, 1)"></circle>
        <circle r="5" cx="99.65" cy="700.25" fill="rgba(79, 158, 109, 1)"></circle>
        <circle r="5" cx="249.62" cy="394.6" fill="rgba(79, 158, 109, 1)"></circle>
        <circle r="5" cx="251.56" cy="497.68" fill="rgba(79, 158, 109, 1)"></circle>
        <circle r="5" cx="233.86" cy="658.32" fill="rgba(79, 158, 109, 1)"></circle>
        <circle r="5" cx="409.59" cy="382.44" fill="rgba(79, 158, 109, 1)"></circle>
        <circle r="5" cx="365.24" cy="504.8" fill="rgba(79, 158, 109, 1)"></circle>
        <circle r="5" cx="360.01" cy="681.79" fill="rgba(79, 158, 109, 1)"></circle>
        <circle r="5" cx="550.8" cy="406.91" fill="rgba(79, 158, 109, 1)"></circle>
        <circle r="5" cx="521.27" cy="521.97" fill="rgba(79, 158, 109, 1)"></circle>
        <circle r="5" cx="499.72" cy="691.65" fill="rgba(79, 158, 109, 1)"></circle>
        <circle r="5" cx="672.31" cy="353.99" fill="rgba(79, 158, 109, 1)"></circle>
        <circle r="5" cx="671.66" cy="553.47" fill="rgba(79, 158, 109, 1)"></circle>
        <circle r="5" cx="663.61" cy="687.66" fill="rgba(79, 158, 109, 1)"></circle>
        <circle r="5" cx="814.57" cy="229.76" fill="rgba(79, 158, 109, 1)"></circle>
        <circle r="5" cx="811.65" cy="351.92" fill="rgba(79, 158, 109, 1)"></circle>
        <circle r="5" cx="799.23" cy="531.01" fill="rgba(79, 158, 109, 1)"></circle>
        <circle r="5" cx="950.79" cy="89.35" fill="rgba(79, 158, 109, 1)"></circle>
        <circle r="5" cx="949.02" cy="200.15" fill="rgba(79, 158, 109, 1)"></circle>
        <circle r="5" cx="943.21" cy="344.21" fill="rgba(79, 158, 109, 1)"></circle>
        <circle r="5" cx="1004.62" cy="513.49" fill="rgba(79, 158, 109, 1)"></circle>
        <circle r="5" cx="941.45" cy="668.86" fill="rgba(79, 158, 109, 1)"></circle>
        <circle r="5" cx="1087.71" cy="-88.53" fill="rgba(79, 158, 109, 1)"></circle>
        <circle r="5" cx="1108.24" cy="189.14" fill="rgba(79, 158, 109, 1)"></circle>
        <circle r="5" cx="1093.15" cy="364.09" fill="rgba(79, 158, 109, 1)"></circle>
        <circle r="5" cx="1094.82" cy="548.99" fill="rgba(79, 158, 109, 1)"></circle>
        <circle r="5" cx="1106.37" cy="658" fill="rgba(79, 158, 109, 1)"></circle>
        <circle r="5" cx="1286.28" cy="-96.63" fill="rgba(79, 158, 109, 1)"></circle>
        <circle r="5" cx="1287.64" cy="40.79" fill="rgba(79, 158, 109, 1)"></circle>
        <circle r="5" cx="1257.04" cy="191.08" fill="rgba(79, 158, 109, 1)"></circle>
        <circle r="5" cx="1253.25" cy="391.54" fill="rgba(79, 158, 109, 1)"></circle>
        <circle r="5" cx="1284.01" cy="662.11" fill="rgba(79, 158, 109, 1)"></circle>
        <circle r="5" cx="1433.44" cy="-94.99" fill="rgba(79, 158, 109, 1)"></circle>
        <circle r="5" cx="1421.17" cy="100.34" fill="rgba(79, 158, 109, 1)"></circle>
        <circle r="5" cx="1434.1" cy="193.09" fill="rgba(79, 158, 109, 1)"></circle>
        <circle r="5" cx="1404.47" cy="513.76" fill="rgba(79, 158, 109, 1)"></circle>
        <circle r="5" cx="1393.44" cy="678.44" fill="rgba(79, 158, 109, 1)"></circle>
        <circle r="5" cx="1552.29" cy="-43.66" fill="rgba(79, 158, 109, 1)"></circle>
        <circle r="5" cx="1541.28" cy="104.61" fill="rgba(79, 158, 109, 1)"></circle>
        <circle r="5" cx="1579.7" cy="200.96" fill="rgba(79, 158, 109, 1)"></circle>
        <circle r="5" cx="1542.87" cy="354.73" fill="rgba(79, 158, 109, 1)"></circle>
        <circle r="5" cx="1572.95" cy="554.12" fill="rgba(79, 158, 109, 1)"></circle>
        <circle r="5" cx="1541.62" cy="692.28" fill="rgba(79, 158, 109, 1)"></circle>
        <path d="M89.34 661.83L89.34 661.83" stroke="hsl(227, 99.1%, 55.8%)" stroke-width="1.5"></path>
        <path d="M89.34 661.83L234.21 653.96" stroke="hsl(227, 99.1%, 55.8%)" stroke-width="1.5"></path>
        <path d="M89.34 661.83L67.2 517.53" stroke="hsl(227, 99.1%, 55.8%)" stroke-width="1.5"></path>
        <path d="M89.34 661.83L-88.17 690.79" stroke="hsl(227, 99.1%, 55.8%)" stroke-width="1.5"></path>
        <path d="M991.17 372.44L991.17 372.44" stroke="hsl(227, 99.1%, 55.8%)" stroke-width="1.5"></path>
        <path d="M991.17 372.44L1005.55 246.38" stroke="hsl(227, 99.1%, 55.8%)" stroke-width="1.5"></path>
        <path d="M991.17 372.44L1121.64 374.76" stroke="hsl(227, 99.1%, 55.8%)" stroke-width="1.5"></path>
        <path d="M991.17 372.44L977.93 550.77" stroke="hsl(227, 99.1%, 55.8%)" stroke-width="1.5"></path>
        <path d="M991.17 372.44L1127.98 229.49" stroke="hsl(227, 99.1%, 55.8%)" stroke-width="1.5"></path>
        <path d="M977.93 550.77L977.93 550.77" stroke="hsl(227, 99.1%, 55.8%)" stroke-width="1.5"></path>
        <path d="M977.93 550.77L984.36 653.71" stroke="hsl(227, 99.1%, 55.8%)" stroke-width="1.5"></path>
        <path d="M977.93 550.77L1124.48 531.64" stroke="hsl(227, 99.1%, 55.8%)" stroke-width="1.5"></path>
        <path d="M1127.57 661.47L1127.57 661.47" stroke="hsl(227, 99.1%, 55.8%)" stroke-width="1.5"></path>
        <path d="M1127.57 661.47L1124.48 531.64" stroke="hsl(227, 99.1%, 55.8%)" stroke-width="1.5"></path>
        <path d="M1127.57 661.47L984.36 653.71" stroke="hsl(227, 99.1%, 55.8%)" stroke-width="1.5"></path>
        <path d="M1127.57 661.47L1307.05 698.74" stroke="hsl(227, 99.1%, 55.8%)" stroke-width="1.5"></path>
        <path d="M1127.57 661.47L977.93 550.77" stroke="hsl(227, 99.1%, 55.8%)" stroke-width="1.5"></path>
        <path d="M1127.57 661.47L1252.73 490.05" stroke="hsl(227, 99.1%, 55.8%)" stroke-width="1.5"></path>
        <path d="M1127.57 661.47L848.57 686.35" stroke="hsl(227, 99.1%, 55.8%)" stroke-width="1.5"></path>
        <path d="M1306.75 357.83L1306.75 357.83" stroke="hsl(227, 99.1%, 55.8%)" stroke-width="1.5"></path>
        <path d="M1306.75 357.83L1390.73 358.1" stroke="hsl(227, 99.1%, 55.8%)" stroke-width="1.5"></path>
        <path d="M1306.75 357.83L1388.75 242.42" stroke="hsl(227, 99.1%, 55.8%)" stroke-width="1.5"></path>
        <path d="M1306.75 357.83L1252.73 490.05" stroke="hsl(227, 99.1%, 55.8%)" stroke-width="1.5"></path>
        <path d="M1306.75 357.83L1268.23 219.06" stroke="hsl(227, 99.1%, 55.8%)" stroke-width="1.5"></path>
        <path d="M1307.05 698.74L1307.05 698.74" stroke="hsl(227, 99.1%, 55.8%)" stroke-width="1.5"></path>
        <path d="M1307.05 698.74L1252.73 490.05" stroke="hsl(227, 99.1%, 55.8%)" stroke-width="1.5"></path>
        <path d="M-98.58 536.29L-98.58 536.29" stroke="hsl(227, 99.1%, 55.8%)" stroke-width="1.5"></path>
        <path d="M-98.58 536.29L-88.17 690.79" stroke="hsl(227, 99.1%, 55.8%)" stroke-width="1.5"></path>
        <path d="M-98.58 536.29L67.2 517.53" stroke="hsl(227, 99.1%, 55.8%)" stroke-width="1.5"></path>
        <path d="M-98.58 536.29L89.34 661.83" stroke="hsl(227, 99.1%, 55.8%)" stroke-width="1.5"></path>
        <path d="M-98.58 536.29L249.64 554.14" stroke="hsl(227, 99.1%, 55.8%)" stroke-width="1.5"></path>
        <path d="M-98.58 536.29L234.21 653.96" stroke="hsl(227, 99.1%, 55.8%)" stroke-width="1.5"></path>
        <path d="M-98.58 536.29L405.51 504.51" stroke="hsl(227, 99.1%, 55.8%)" stroke-width="1.5"></path>
        <path d="M-88.17 690.79L-88.17 690.79" stroke="hsl(227, 99.1%, 55.8%)" stroke-width="1.5"></path>
        <path d="M-88.17 690.79L67.2 517.53" stroke="hsl(227, 99.1%, 55.8%)" stroke-width="1.5"></path>
        <path d="M-88.17 690.79L234.21 653.96" stroke="hsl(227, 99.1%, 55.8%)" stroke-width="1.5"></path>
        <path d="M-88.17 690.79L249.64 554.14" stroke="hsl(227, 99.1%, 55.8%)" stroke-width="1.5"></path>
        <path d="M-88.17 690.79L404.3 701.6" stroke="hsl(227, 99.1%, 55.8%)" stroke-width="1.5"></path>
        <path d="M67.2 517.53L67.2 517.53" stroke="hsl(227, 99.1%, 55.8%)" stroke-width="1.5"></path>
        <path d="M67.2 517.53L249.64 554.14" stroke="hsl(227, 99.1%, 55.8%)" stroke-width="1.5"></path>
        <path d="M67.2 517.53L234.21 653.96" stroke="hsl(227, 99.1%, 55.8%)" stroke-width="1.5"></path>
        <path d="M67.2 517.53L405.51 504.51" stroke="hsl(227, 99.1%, 55.8%)" stroke-width="1.5"></path>
        <path d="M249.64 554.14L249.64 554.14" stroke="hsl(227, 99.1%, 55.8%)" stroke-width="1.5"></path>
        <path d="M249.64 554.14L234.21 653.96" stroke="hsl(227, 99.1%, 55.8%)" stroke-width="1.5"></path>
        <path d="M249.64 554.14L405.51 504.51" stroke="hsl(227, 99.1%, 55.8%)" stroke-width="1.5"></path>
        <path d="M249.64 554.14L89.34 661.83" stroke="hsl(227, 99.1%, 55.8%)" stroke-width="1.5"></path>
        <path d="M249.64 554.14L404.3 701.6" stroke="hsl(227, 99.1%, 55.8%)" stroke-width="1.5"></path>
        <path d="M249.64 554.14L489.15 522.32" stroke="hsl(227, 99.1%, 55.8%)" stroke-width="1.5"></path>
        <path d="M234.21 653.96L234.21 653.96" stroke="hsl(227, 99.1%, 55.8%)" stroke-width="1.5"></path>
        <path d="M234.21 653.96L404.3 701.6" stroke="hsl(227, 99.1%, 55.8%)" stroke-width="1.5"></path>
        <path d="M405.51 504.51L405.51 504.51" stroke="hsl(227, 99.1%, 55.8%)" stroke-width="1.5"></path>
        <path d="M405.51 504.51L489.15 522.32" stroke="hsl(227, 99.1%, 55.8%)" stroke-width="1.5"></path>
        <path d="M405.51 504.51L404.3 701.6" stroke="hsl(227, 99.1%, 55.8%)" stroke-width="1.5"></path>
        <path d="M405.51 504.51L234.21 653.96" stroke="hsl(227, 99.1%, 55.8%)" stroke-width="1.5"></path>
        <path d="M405.51 504.51L661.17 396.03" stroke="hsl(227, 99.1%, 55.8%)" stroke-width="1.5"></path>
        <path d="M404.3 701.6L404.3 701.6" stroke="hsl(227, 99.1%, 55.8%)" stroke-width="1.5"></path>
        <path d="M404.3 701.6L489.15 522.32" stroke="hsl(227, 99.1%, 55.8%)" stroke-width="1.5"></path>
        <path d="M404.3 701.6L658.75 656.41" stroke="hsl(227, 99.1%, 55.8%)" stroke-width="1.5"></path>
        <path d="M404.3 701.6L89.34 661.83" stroke="hsl(227, 99.1%, 55.8%)" stroke-width="1.5"></path>
        <path d="M489.15 522.32L489.15 522.32" stroke="hsl(227, 99.1%, 55.8%)" stroke-width="1.5"></path>
        <path d="M489.15 522.32L661.17 396.03" stroke="hsl(227, 99.1%, 55.8%)" stroke-width="1.5"></path>
        <path d="M489.15 522.32L658.75 656.41" stroke="hsl(227, 99.1%, 55.8%)" stroke-width="1.5"></path>
        <path d="M661.17 396.03L661.17 396.03" stroke="hsl(227, 99.1%, 55.8%)" stroke-width="1.5"></path>
        <path d="M661.17 396.03L708 554.68" stroke="hsl(227, 99.1%, 55.8%)" stroke-width="1.5"></path>
        <path d="M661.17 396.03L838.29 498.54" stroke="hsl(227, 99.1%, 55.8%)" stroke-width="1.5"></path>
        <path d="M661.17 396.03L658.75 656.41" stroke="hsl(227, 99.1%, 55.8%)" stroke-width="1.5"></path>
        <path d="M708 554.68L708 554.68" stroke="hsl(227, 99.1%, 55.8%)" stroke-width="1.5"></path>
        <path d="M708 554.68L658.75 656.41" stroke="hsl(227, 99.1%, 55.8%)" stroke-width="1.5"></path>
        <path d="M708 554.68L838.29 498.54" stroke="hsl(227, 99.1%, 55.8%)" stroke-width="1.5"></path>
        <path d="M658.75 656.41L658.75 656.41" stroke="hsl(227, 99.1%, 55.8%)" stroke-width="1.5"></path>
        <path d="M658.75 656.41L848.57 686.35" stroke="hsl(227, 99.1%, 55.8%)" stroke-width="1.5"></path>
        <path d="M838.29 498.54L838.29 498.54" stroke="hsl(227, 99.1%, 55.8%)" stroke-width="1.5"></path>
        <path d="M838.29 498.54L977.93 550.77" stroke="hsl(227, 99.1%, 55.8%)" stroke-width="1.5"></path>
        <path d="M838.29 498.54L848.57 686.35" stroke="hsl(227, 99.1%, 55.8%)" stroke-width="1.5"></path>
        <path d="M838.29 498.54L991.17 372.44" stroke="hsl(227, 99.1%, 55.8%)" stroke-width="1.5"></path>
        <path d="M838.29 498.54L984.36 653.71" stroke="hsl(227, 99.1%, 55.8%)" stroke-width="1.5"></path>
        <path d="M848.57 686.35L848.57 686.35" stroke="hsl(227, 99.1%, 55.8%)" stroke-width="1.5"></path>
        <path d="M848.57 686.35L984.36 653.71" stroke="hsl(227, 99.1%, 55.8%)" stroke-width="1.5"></path>
        <path d="M848.57 686.35L977.93 550.77" stroke="hsl(227, 99.1%, 55.8%)" stroke-width="1.5"></path>
        <path d="M1005.55 246.38L1005.55 246.38" stroke="hsl(227, 99.1%, 55.8%)" stroke-width="1.5"></path>
        <path d="M1005.55 246.38L1127.98 229.49" stroke="hsl(227, 99.1%, 55.8%)" stroke-width="1.5"></path>
        <path d="M1005.55 246.38L1121.64 374.76" stroke="hsl(227, 99.1%, 55.8%)" stroke-width="1.5"></path>
        <path d="M1005.55 246.38L1153.17 97.9" stroke="hsl(227, 99.1%, 55.8%)" stroke-width="1.5"></path>
        <path d="M1005.55 246.38L1268.23 219.06" stroke="hsl(227, 99.1%, 55.8%)" stroke-width="1.5"></path>
        <path d="M1005.55 246.38L838.29 498.54" stroke="hsl(227, 99.1%, 55.8%)" stroke-width="1.5"></path>
        <path d="M984.36 653.71L984.36 653.71" stroke="hsl(227, 99.1%, 55.8%)" stroke-width="1.5"></path>
        <path d="M984.36 653.71L1124.48 531.64" stroke="hsl(227, 99.1%, 55.8%)" stroke-width="1.5"></path>
        <path d="M1153.17 97.9L1153.17 97.9" stroke="hsl(227, 99.1%, 55.8%)" stroke-width="1.5"></path>
        <path d="M1153.17 97.9L1127.98 229.49" stroke="hsl(227, 99.1%, 55.8%)" stroke-width="1.5"></path>
        <path d="M1153.17 97.9L1268.23 219.06" stroke="hsl(227, 99.1%, 55.8%)" stroke-width="1.5"></path>
        <path d="M1127.98 229.49L1127.98 229.49" stroke="hsl(227, 99.1%, 55.8%)" stroke-width="1.5"></path>
        <path d="M1127.98 229.49L1268.23 219.06" stroke="hsl(227, 99.1%, 55.8%)" stroke-width="1.5"></path>
        <path d="M1121.64 374.76L1121.64 374.76" stroke="hsl(227, 99.1%, 55.8%)" stroke-width="1.5"></path>
        <path d="M1121.64 374.76L1127.98 229.49" stroke="hsl(227, 99.1%, 55.8%)" stroke-width="1.5"></path>
        <path d="M1121.64 374.76L1124.48 531.64" stroke="hsl(227, 99.1%, 55.8%)" stroke-width="1.5"></path>
        <path d="M1121.64 374.76L1252.73 490.05" stroke="hsl(227, 99.1%, 55.8%)" stroke-width="1.5"></path>
        <path d="M1121.64 374.76L1306.75 357.83" stroke="hsl(227, 99.1%, 55.8%)" stroke-width="1.5"></path>
        <path d="M1124.48 531.64L1124.48 531.64" stroke="hsl(227, 99.1%, 55.8%)" stroke-width="1.5"></path>
        <path d="M1124.48 531.64L1252.73 490.05" stroke="hsl(227, 99.1%, 55.8%)" stroke-width="1.5"></path>
        <path d="M1244.91 -58.23L1244.91 -58.23" stroke="hsl(227, 99.1%, 55.8%)" stroke-width="1.5"></path>
        <path d="M1244.91 -58.23L1153.17 97.9" stroke="hsl(227, 99.1%, 55.8%)" stroke-width="1.5"></path>
        <path d="M1244.91 -58.23L1402.25 60.13" stroke="hsl(227, 99.1%, 55.8%)" stroke-width="1.5"></path>
        <path d="M1268.23 219.06L1268.23 219.06" stroke="hsl(227, 99.1%, 55.8%)" stroke-width="1.5"></path>
        <path d="M1268.23 219.06L1388.75 242.42" stroke="hsl(227, 99.1%, 55.8%)" stroke-width="1.5"></path>
        <path d="M1252.73 490.05L1252.73 490.05" stroke="hsl(227, 99.1%, 55.8%)" stroke-width="1.5"></path>
        <path d="M1402.25 60.13L1402.25 60.13" stroke="hsl(227, 99.1%, 55.8%)" stroke-width="1.5"></path>
        <path d="M1402.25 60.13L1557.42 110.9" stroke="hsl(227, 99.1%, 55.8%)" stroke-width="1.5"></path>
        <path d="M1402.25 60.13L1388.75 242.42" stroke="hsl(227, 99.1%, 55.8%)" stroke-width="1.5"></path>
        <path d="M1402.25 60.13L1268.23 219.06" stroke="hsl(227, 99.1%, 55.8%)" stroke-width="1.5"></path>
        <path d="M1402.25 60.13L1562.82 -92.48" stroke="hsl(227, 99.1%, 55.8%)" stroke-width="1.5"></path>
        <path d="M1402.25 60.13L1153.17 97.9" stroke="hsl(227, 99.1%, 55.8%)" stroke-width="1.5"></path>
        <path d="M1388.75 242.42L1388.75 242.42" stroke="hsl(227, 99.1%, 55.8%)" stroke-width="1.5"></path>
        <path d="M1388.75 242.42L1390.73 358.1" stroke="hsl(227, 99.1%, 55.8%)" stroke-width="1.5"></path>
        <path d="M1388.75 242.42L1557.42 110.9" stroke="hsl(227, 99.1%, 55.8%)" stroke-width="1.5"></path>
        <path d="M1388.75 242.42L1587.05 379.33" stroke="hsl(227, 99.1%, 55.8%)" stroke-width="1.5"></path>
        <path d="M1390.73 358.1L1390.73 358.1" stroke="hsl(227, 99.1%, 55.8%)" stroke-width="1.5"></path>
        <path d="M1390.73 358.1L1456.35 497.7" stroke="hsl(227, 99.1%, 55.8%)" stroke-width="1.5"></path>
        <path d="M1390.73 358.1L1268.23 219.06" stroke="hsl(227, 99.1%, 55.8%)" stroke-width="1.5"></path>
        <path d="M1390.73 358.1L1252.73 490.05" stroke="hsl(227, 99.1%, 55.8%)" stroke-width="1.5"></path>
        <path d="M1456.35 497.7L1456.35 497.7" stroke="hsl(227, 99.1%, 55.8%)" stroke-width="1.5"></path>
        <path d="M1456.35 497.7L1544.24 543.64" stroke="hsl(227, 99.1%, 55.8%)" stroke-width="1.5"></path>
        <path d="M1456.35 497.7L1587.05 379.33" stroke="hsl(227, 99.1%, 55.8%)" stroke-width="1.5"></path>
        <path d="M1456.35 497.7L1252.73 490.05" stroke="hsl(227, 99.1%, 55.8%)" stroke-width="1.5"></path>
        <path d="M1456.35 497.7L1306.75 357.83" stroke="hsl(227, 99.1%, 55.8%)" stroke-width="1.5"></path>
        <path d="M1456.35 497.7L1611.45 648.74" stroke="hsl(227, 99.1%, 55.8%)" stroke-width="1.5"></path>
        <path d="M1562.82 -92.48L1562.82 -92.48" stroke="hsl(227, 99.1%, 55.8%)" stroke-width="1.5"></path>
        <path d="M1562.82 -92.48L1557.42 110.9" stroke="hsl(227, 99.1%, 55.8%)" stroke-width="1.5"></path>
        <path d="M1557.42 110.9L1557.42 110.9" stroke="hsl(227, 99.1%, 55.8%)" stroke-width="1.5"></path>
        <path d="M1557.42 110.9L1587.05 379.33" stroke="hsl(227, 99.1%, 55.8%)" stroke-width="1.5"></path>
        <path d="M1557.42 110.9L1390.73 358.1" stroke="hsl(227, 99.1%, 55.8%)" stroke-width="1.5"></path>
        <path d="M1587.05 379.33L1587.05 379.33" stroke="hsl(227, 99.1%, 55.8%)" stroke-width="1.5"></path>
        <path d="M1587.05 379.33L1544.24 543.64" stroke="hsl(227, 99.1%, 55.8%)" stroke-width="1.5"></path>
        <path d="M1587.05 379.33L1390.73 358.1" stroke="hsl(227, 99.1%, 55.8%)" stroke-width="1.5"></path>
        <path d="M1544.24 543.64L1544.24 543.64" stroke="hsl(227, 99.1%, 55.8%)" stroke-width="1.5"></path>
        <path d="M1544.24 543.64L1611.45 648.74" stroke="hsl(227, 99.1%, 55.8%)" stroke-width="1.5"></path>
        <path d="M1611.45 648.74L1611.45 648.74" stroke="hsl(227, 99.1%, 55.8%)" stroke-width="1.5"></path>
        <path d="M1611.45 648.74L1587.05 379.33" stroke="hsl(227, 99.1%, 55.8%)" stroke-width="1.5"></path>
        <path d="M1611.45 648.74L1307.05 698.74" stroke="hsl(227, 99.1%, 55.8%)" stroke-width="1.5"></path>
        <path d="M1611.45 648.74L1390.73 358.1" stroke="hsl(227, 99.1%, 55.8%)" stroke-width="1.5"></path>
        <path d="M1611.45 648.74L1252.73 490.05" stroke="hsl(227, 99.1%, 55.8%)" stroke-width="1.5"></path>
        <circle r="25" cx="89.34" cy="661.83" fill="url(#SvgjsRadialGradient1005)"></circle>
        <circle r="25" cx="991.17" cy="372.44" fill="url(#SvgjsRadialGradient1005)"></circle>
        <circle r="25" cx="977.93" cy="550.77" fill="url(#SvgjsRadialGradient1005)"></circle>
        <circle r="25" cx="1127.57" cy="661.47" fill="url(#SvgjsRadialGradient1005)"></circle>
        <circle r="25" cx="1306.75" cy="357.83" fill="url(#SvgjsRadialGradient1005)"></circle>
        <circle r="25" cx="1307.05" cy="698.74" fill="url(#SvgjsRadialGradient1005)"></circle>
        <circle r="5" cx="-98.58" cy="536.29" fill="#8098ed"></circle>
        <circle r="5" cx="-88.17" cy="690.79" fill="#8098ed"></circle>
        <circle r="5" cx="67.2" cy="517.53" fill="#8098ed"></circle>
        <circle r="5" cx="249.64" cy="554.14" fill="#8098ed"></circle>
        <circle r="5" cx="234.21" cy="653.96" fill="#8098ed"></circle>
        <circle r="5" cx="405.51" cy="504.51" fill="#8098ed"></circle>
        <circle r="5" cx="404.3" cy="701.6" fill="#8098ed"></circle>
        <circle r="5" cx="489.15" cy="522.32" fill="#8098ed"></circle>
        <circle r="5" cx="661.17" cy="396.03" fill="#8098ed"></circle>
        <circle r="5" cx="708" cy="554.68" fill="#8098ed"></circle>
        <circle r="5" cx="658.75" cy="656.41" fill="#8098ed"></circle>
        <circle r="5" cx="838.29" cy="498.54" fill="#8098ed"></circle>
        <circle r="5" cx="848.57" cy="686.35" fill="#8098ed"></circle>
        <circle r="5" cx="1005.55" cy="246.38" fill="#8098ed"></circle>
        <circle r="5" cx="984.36" cy="653.71" fill="#8098ed"></circle>
        <circle r="5" cx="1153.17" cy="97.9" fill="#8098ed"></circle>
        <circle r="5" cx="1127.98" cy="229.49" fill="#8098ed"></circle>
        <circle r="5" cx="1121.64" cy="374.76" fill="#8098ed"></circle>
        <circle r="5" cx="1124.48" cy="531.64" fill="#8098ed"></circle>
        <circle r="5" cx="1244.91" cy="-58.23" fill="#8098ed"></circle>
        <circle r="5" cx="1268.23" cy="219.06" fill="#8098ed"></circle>
        <circle r="5" cx="1252.73" cy="490.05" fill="#8098ed"></circle>
        <circle r="5" cx="1402.25" cy="60.13" fill="#8098ed"></circle>
        <circle r="5" cx="1388.75" cy="242.42" fill="#8098ed"></circle>
        <circle r="5" cx="1390.73" cy="358.1" fill="#8098ed"></circle>
        <circle r="5" cx="1456.35" cy="497.7" fill="#8098ed"></circle>
        <circle r="5" cx="1562.82" cy="-92.48" fill="#8098ed"></circle>
        <circle r="5" cx="1557.42" cy="110.9" fill="#8098ed"></circle>
        <circle r="5" cx="1587.05" cy="379.33" fill="#8098ed"></circle>
        <circle r="5" cx="1544.24" cy="543.64" fill="#8098ed"></circle>
        <circle r="5" cx="1611.45" cy="648.74" fill="#8098ed"></circle>
    </g>
    <defs>
        <mask id="SvgjsMask1003">
            <rect width="1440" height="560" fill="#ffffff"></rect>
        </mask>
        <radialGradient cx="100%" cy="100%" r="1545.06" gradientUnits="userSpaceOnUse" id="SvgjsRadialGradient1004">
            <stop stop-color="#0e2a47" offset="0"></stop>
            <stop stop-color="rgba(36, 75, 126, 1)" offset="1"></stop>
        </radialGradient>
        <radialGradient id="SvgjsRadialGradient1005">
            <stop stop-color="#ffffff" offset="0.1"></stop>
            <stop stop-color="rgba(1, 48, 218, 1)" offset="0.2"></stop>
            <stop stop-color="rgba(1, 48, 218, 0)" offset="1"></stop>
        </radialGradient>
    </defs>
</svg>